<svg xmlns="http://www.w3.org/2000/svg" viewBox="0 0 480 360" role="img" aria-labelledby="heroTitle">
  <title id="heroTitle">Meridian Ops workflow dashboard showing connected approval pipelines</title>
  <rect width="480" height="360" rx="16" fill="#f5f7fb"/>
  <rect x="24" y="24" width="432" height="48" rx="8" fill="#ffffff" stroke="#e2e6ef"/>
  <circle cx="48" cy="48" r="8" fill="#1e4fd8"/>
  <rect x="68" y="40" width="160" height="16" rx="4" fill="#dbe2f5"/>
  <rect x="24" y="88" width="204" height="248" rx="8" fill="#ffffff" stroke="#e2e6ef"/>
  <rect x="24" y="88" width="204" height="36" rx="8" fill="#eef1fb"/>
  <rect x="40" y="100" width="90" height="12" rx="3" fill="#3d4658"/>
  <rect x="40" y="140" width="172" height="14" rx="4" fill="#e2e6ef"/>
  <rect x="40" y="164" width="140" height="14" rx="4" fill="#e2e6ef"/>
  <rect x="40" y="188" width="172" height="14" rx="4" fill="#e2e6ef"/>
  <rect x="40" y="220" width="172" height="60" rx="8" fill="#eef6f1"/>
  <rect x="52" y="232" width="90" height="10" rx="3" fill="#0f9d6a"/>
  <rect x="52" y="250" width="130" height="10" rx="3" fill="#9fd6bd"/>
  <rect x="252" y="88" width="204" height="120" rx="8" fill="#ffffff" stroke="#e2e6ef"/>
  <rect x="268" y="104" width="100" height="12" rx="3" fill="#3d4658"/>
  <circle cx="354" cy="164" r="36" fill="none" stroke="#1e4fd8" stroke-width="10" stroke-dasharray="150 226" stroke-linecap="round"/>
  <text x="354" y="170" font-family="Arial, sans-serif" font-size="18" fill="#1e4fd8" text-anchor="middle">67%</text>
  <rect x="252" y="220" width="204" height="116" rx="8" fill="#ffffff" stroke="#e2e6ef"/>
  <rect x="268" y="236" width="100" height="12" rx="3" fill="#3d4658"/>
  <polyline points="268,320 300,290 328,304 356,262 384,278 412,246 440,258" fill="none" stroke="#0f9d6a" stroke-width="3" stroke-linecap="round" stroke-linejoin="round"/>
</svg>
